<?xml version="1.0" encoding="utf-8"?>
<!-- Generator: Adobe Illustrator 22.0.1, SVG Export Plug-In . SVG Version: 6.00 Build 0)  -->
<svg version="1.1" xmlns="http://www.w3.org/2000/svg" xmlns:xlink="http://www.w3.org/1999/xlink" x="0px" y="0px"
	 viewBox="0 0 55.5 24" style="enable-background:new 0 0 55.5 24;" xml:space="preserve">
<style type="text/css">
	.st0{fill:none;stroke:#000000;stroke-width:2;stroke-linecap:round;stroke-linejoin:round;}
</style>
<g id="Layer_1">
	<path class="st0" d="M11,4H4C2.9,4,2,4.9,2,6v14c0,1.1,0.9,2,2,2h14c1.1,0,2-0.9,2-2v-7"/>
	<path class="st0" d="M18.5,2.5c0.8-0.8,2.2-0.8,3,0s0.8,2.2,0,3L12,15l-4,1l1-4L18.5,2.5z"/>
	<g>
		<g>
			<path d="M25.1,15.5l0.8-1.1c0.8,0.7,1.7,1.2,2.9,1.2c1.3,0,1.9-0.7,1.9-1.5c0-1-1.1-1.4-2.2-1.8c-1.4-0.5-2.9-1.2-2.9-2.8
				c0-1.6,1.2-2.8,3.4-2.8c1.2,0,2.3,0.5,3,1.1l-0.8,1.1C30.5,8.3,29.8,8,28.9,8c-1.2,0-1.8,0.7-1.8,1.4c0,0.9,1.1,1.3,2.2,1.7
				c1.4,0.5,3,1.1,3,2.9c0,1.6-1.3,2.9-3.5,2.9C27.3,16.9,26,16.3,25.1,15.5z"/>
			<path d="M34.5,6.9h1.4L36,8h0.1c0.9-0.7,2-1.4,3.1-1.4c2.5,0,3.9,1.9,3.9,5c0,3.3-2,5.2-4.2,5.2c-0.9,0-1.8-0.4-2.7-1.1l0,1.7
				v3.3h-1.6V6.9z M41.3,11.6c0-2.1-0.7-3.6-2.6-3.6c-0.8,0-1.7,0.5-2.6,1.3v5.1c0.9,0.7,1.7,1,2.4,1C40.1,15.5,41.3,14,41.3,11.6z"
				/>
			<path d="M45.6,6.9H47L47.1,8h0.1c0.9-0.7,2-1.4,3.1-1.4c2.5,0,3.9,1.9,3.9,5c0,3.3-2,5.2-4.2,5.2c-0.9,0-1.8-0.4-2.7-1.1l0,1.7
				v3.3h-1.6V6.9z M52.4,11.6c0-2.1-0.7-3.6-2.6-3.6c-0.8,0-1.7,0.5-2.6,1.3v5.1c0.9,0.7,1.7,1,2.4,1C51.2,15.5,52.4,14,52.4,11.6z"
				/>
		</g>
	</g>
</g>
<g id="Layer_2">
</g>
</svg>
