<?xml version="1.0" encoding="utf-8"?>
<!-- Generator: Adobe Illustrator 22.0.1, SVG Export Plug-In . SVG Version: 6.00 Build 0)  -->
<svg version="1.1" xmlns="http://www.w3.org/2000/svg" xmlns:xlink="http://www.w3.org/1999/xlink" x="0px" y="0px"
	 viewBox="0 0 40.8 24" style="enable-background:new 0 0 40.8 24;" xml:space="preserve">
<style type="text/css">
	.st0{fill:none;stroke:#000000;stroke-width:2;stroke-linecap:round;stroke-linejoin:round;}
</style>
<g id="Layer_1">
	<path class="st0" d="M11,4H4C2.9,4,2,4.9,2,6v14c0,1.1,0.9,2,2,2h14c1.1,0,2-0.9,2-2v-7"/>
	<path class="st0" d="M18.5,2.5c0.8-0.8,2.2-0.8,3,0s0.8,2.2,0,3L12,15l-4,1l1-4L18.5,2.5z"/>
	<g>
		<g>
			<path d="M25.4,5.3h2l2.4,8.2c0.5,1.8,0.9,3.2,1.5,5h0.1c0.6-1.8,0.9-3.2,1.5-5l2.4-8.2h2l-4.8,15.1h-2.2L25.4,5.3z"/>
		</g>
	</g>
</g>
<g id="Layer_2">
</g>
</svg>
